{"glyphs":{" ":{"ha":347,"x_min":0,"x_max":0,"o":""},"!":{"ha":391,"x_min":0,"x_max":186,"o":"m 0 0 l 0 186 l 186 186 l 186 0 l 0 0 m 0 371 l 0 1111 l 186 1111 l 186 371 l 0 371 z "},"&":{"ha":1438,"x_min":0,"x_max":1371,"o":"m 0 463 l 144 648 l 433 1018 l 507 1111 l 742 1111 l 743 1111 l 669 1018 l 639 978 l 1371 978 l 1225 793 l 493 793 l 380 648 l 1111 648 l 964 463 l 672 92 l 602 0 l 366 0 l 437 92 l 555 243 l 726 463 l 235 463 l 0 463 z "},"+":{"ha":1166,"x_min":0,"x_max":1111,"o":"m 0 463 l 0 648 l 463 648 l 463 463 l 0 463 m 463 0 l 463 463 l 648 463 l 648 0 l 463 0 m 463 648 l 463 1111 l 648 1111 l 648 648 l 463 648 m 648 463 l 648 648 l 1111 648 l 1111 463 l 648 463 z "},"/":{"ha":1233,"x_min":0,"x_max":1104,"o":"m 0 0 l 435 555 l 436 555 l 0 0 m 0 0 l 436 555 l 435 555 l 869 1111 l 1104 1111 l 671 555 l 553 404 l 553 406 l 237 0 l 0 0 m 237 0 l 553 406 l 553 404 l 237 0 z "},"A":{"ha":1249,"x_min":69,"x_max":1181,"o":"m 69 0 l 625 1111 l 996 370 l 787 370 l 625 696 l 461 370 l 370 186 l 275 0 l 69 0 m 882 184 l 1088 184 l 1181 0 l 974 0 l 882 184 z "},"B":{"ha":1123,"x_min":0,"x_max":925,"o":"m 0 463 l 0 647 l 111 647 l 184 647 l 602 647 q 654 659 631 647 q 700 689 682 669 q 729 733 719 708 q 741 787 741 762 q 729 840 741 811 q 700 885 719 866 q 654 916 682 905 q 602 925 631 925 l 184 925 l 0 1111 l 602 1111 q 726 1086 669 1111 q 831 1015 791 1057 q 900 913 876 970 q 925 787 925 856 q 828 555 925 650 q 925 323 925 463 q 900 199 925 256 q 831 96 875 140 q 726 25 792 55 q 602 0 669 0 l 184 0 l 184 186 l 602 186 q 654 196 629 186 q 700 227 682 206 q 729 271 719 245 q 741 323 741 300 q 729 376 741 347 q 700 421 719 402 q 657 452 677 444 q 602 463 628 463 l 184 463 l 0 463 z "},"C":{"ha":1000,"x_min":0,"x_max":950,"o":"m 0 555 q 45 772 0 669 q 164 947 88 871 q 342 1067 239 1023 q 557 1111 442 1111 q 772 1068 675 1111 q 950 947 874 1023 l 818 818 q 557 925 708 925 q 412 897 480 925 q 294 817 344 868 q 215 700 244 766 q 186 555 186 631 q 215 411 186 479 q 296 294 245 343 q 412 214 345 243 q 557 186 482 186 l 772 43 q 557 0 675 0 q 342 45 444 0 q 164 164 243 87 q 45 342 87 243 q 0 555 0 446 z "},"D":{"ha":1152,"x_min":0,"x_max":925,"o":"m 0 0 l 184 186 l 370 186 q 514 214 446 186 q 632 294 584 244 q 711 412 683 347 q 741 555 741 481 q 711 699 741 630 q 631 817 682 765 q 513 897 579 868 q 370 925 445 925 l 184 925 l 0 1111 l 370 1111 q 585 1067 482 1111 q 761 947 686 1022 q 882 770 835 873 q 925 555 925 671 q 882 342 925 441 q 762 164 836 239 q 585 45 687 89 q 370 0 483 0 l 0 0 z "},"E":{"ha":883,"x_min":0,"x_max":741,"o":"m 0 0 l 0 16 l 184 186 l 741 186 l 741 0 l 0 0 m 0 463 l 0 647 l 184 647 l 741 647 l 741 463 l 184 463 l 0 463 m 0 1111 l 741 1111 l 741 925 l 184 925 l 0 1111 z "},"F":{"ha":884,"x_min":0,"x_max":741,"o":"m 0 0 l 0 557 l 184 557 l 741 557 l 741 370 l 184 370 l 184 0 l 0 0 m 0 1111 l 741 1111 l 741 925 l 184 925 l 0 1111 z "},"G":{"ha":1215,"x_min":0,"x_max":1019,"o":"m 0 555 q 164 947 0 785 q 555 1111 323 1111 q 772 1068 673 1111 q 950 947 874 1023 l 817 817 q 555 925 708 925 q 293 817 401 925 q 186 555 186 709 q 293 293 186 400 q 555 186 400 186 q 710 218 637 186 q 835 311 782 252 l 1019 250 q 930 147 979 189 q 821 68 880 102 q 694 18 763 35 q 555 0 627 0 q 164 164 328 0 q 0 555 0 328 m 555 463 l 555 647 l 1019 647 l 835 463 l 555 463 z "},"H":{"ha":1137,"x_min":0,"x_max":925,"o":"m 0 0 l 0 463 l 184 648 l 741 648 l 741 1111 l 925 1111 l 925 0 l 741 0 l 741 463 l 184 463 l 184 0 l 0 0 z "},"I":{"ha":194,"x_min":0,"x_max":184,"o":"m 0 0 l 0 1111 l 184 928 l 184 186 l 0 0 z "},"J":{"ha":854,"x_min":0,"x_max":635,"o":"m 0 107 l 134 240 q 262 186 188 186 l 262 0 q 0 107 109 0 m 262 0 m 392 239 q 447 370 447 292 l 447 1111 l 635 1111 l 635 370 q 525 107 635 220 l 473 157 l 392 239 m 473 157 l 525 107 l 473 157 z "},"K":{"ha":979,"x_min":0,"x_max":819,"o":"m 0 554 l 78 632 l 558 1111 l 819 1111 l 264 555 l 819 0 l 558 0 l 78 478 l 0 554 m 78 478 l 558 0 l 78 478 m 78 632 l 558 1111 l 78 632 z "},"L":{"ha":855,"x_min":0,"x_max":741,"o":"m 0 0 l 184 186 l 741 186 l 741 0 l 0 0 m 0 252 l 0 1080 l 0 1111 l 184 1111 l 184 1080 l 184 437 l 0 252 z "},"M":{"ha":1324,"x_min":0,"x_max":1112,"o":"m 0 852 l 0 1111 l 557 555 l 1112 1111 l 1112 0 l 929 0 l 929 664 l 557 293 l 0 852 z "},"N":{"ha":1136,"x_min":0,"x_max":924,"o":"m 0 831 l 0 1111 l 739 446 l 739 1111 l 924 1111 l 924 3 l 924 1 l 924 0 l 0 831 z "},"O":{"ha":1340,"x_min":0,"x_max":1112,"o":"m 0 555 q 164 947 0 783 q 555 1111 326 1111 q 947 947 784 1111 q 1112 555 1112 785 q 947 164 1112 325 q 555 0 783 0 q 164 164 328 0 q 0 555 0 328 m 186 555 q 293 293 186 400 q 555 186 400 186 q 817 293 709 186 q 925 555 925 401 q 817 817 925 708 q 555 925 708 925 q 293 817 401 925 q 186 555 186 709 z "},"P":{"ha":1083,"x_min":0,"x_max":925,"o":"m 0 0 l 0 555 l 184 555 l 555 555 q 685 610 631 555 q 741 741 741 665 q 685 871 741 817 q 555 925 631 925 l 184 925 l 0 1111 l 555 1111 q 817 1003 709 1111 q 925 741 925 891 q 817 478 925 584 q 555 370 708 370 l 184 370 l 184 0 l 0 0 z "},"Q":{"ha":1336,"x_min":0,"x_max":1111,"o":"m 0 555 q 163 949 2 790 q 555 1111 323 1111 q 949 949 789 1111 q 1111 555 1111 787 q 1008 232 1111 372 l 873 367 q 926 557 926 452 q 818 818 926 707 q 555 928 706 928 q 293 818 405 928 q 184 557 184 707 q 293 293 184 404 q 555 186 402 186 q 743 236 659 186 l 878 102 q 555 0 738 0 q 161 161 323 0 q 0 550 0 323 q 0 555 0 553 z "},"R":{"ha":1057,"x_min":0,"x_max":857,"o":"m 0 1111 l 488 1111 q 749 1003 641 1111 q 857 742 857 891 q 791 532 857 623 q 629 399 728 439 l 857 0 l 644 0 l 322 557 l 488 555 q 616 610 562 555 q 672 742 672 663 q 616 871 672 817 q 488 925 562 925 l 117 925 l 96 946 l 0 1111 z "},"S":{"ha":1115,"x_min":0,"x_max":925,"o":"m 0 787 q 94 1015 0 919 q 323 1111 188 1111 l 323 925 q 269 916 293 925 q 224 885 245 907 q 195 840 205 866 q 184 787 184 815 q 224 689 184 730 q 323 647 266 647 l 600 647 q 829 553 735 647 q 925 323 925 457 q 829 94 925 190 q 600 0 735 0 l 600 186 q 654 196 629 186 q 700 225 680 205 q 729 269 720 245 q 741 323 741 298 q 699 421 741 377 q 600 463 657 463 l 323 463 q 94 557 189 463 q 0 787 0 653 z "},"T":{"ha":708,"x_min":0,"x_max":555,"o":"m 0 0 l 0 925 l 0 1111 l 555 1111 l 555 925 l 186 925 l 186 0 l 0 0 z "},"U":{"ha":1086,"x_min":0,"x_max":925,"o":"m 0 463 l 0 1111 l 184 1111 l 184 463 q 264 268 184 347 q 461 186 344 186 q 657 268 575 186 q 741 463 741 351 l 925 463 q 789 135 925 269 q 461 0 654 0 q 135 135 270 0 q 0 463 0 270 z "},"V":{"ha":822,"x_min":0,"x_max":660,"o":"m 0 1111 l 207 1111 l 660 207 l 555 0 l 0 1111 z "},"W":{"ha":1968,"x_min":0,"x_max":1810,"o":"m 0 1111 l 207 1111 l 557 415 l 453 207 l 0 1111 m 904 696 l 1008 904 l 1254 415 l 1603 1111 l 1810 1111 l 1254 0 l 904 696 z "},"X":{"ha":1276,"x_min":0,"x_max":1104,"o":"m 0 0 l 436 555 l 553 406 l 237 0 l 0 0 m 0 1111 l 237 1111 l 553 705 l 436 555 l 0 1111 m 553 406 l 671 555 l 1104 0 l 869 0 l 553 406 m 553 705 l 869 1111 l 1104 1111 l 671 555 l 553 705 z "},"Y":{"ha":1233,"x_min":0,"x_max":1104,"o":"m 0 0 l 436 555 l 0 1111 l 237 1111 l 553 705 l 869 1111 l 1104 1111 l 671 555 l 553 404 l 553 406 l 237 0 l 0 0 m 237 0 l 553 406 l 553 404 l 237 0 z "},"Z":{"ha":1175,"x_min":0,"x_max":1112,"o":"m 0 0 l 380 186 l 1112 186 l 1112 0 l 0 0 m 0 925 l 0 1111 l 1104 1111 l 725 925 l 0 925 z "},"[":{"ha":583,"x_min":0,"x_max":555,"o":"m 0 0 l 0 925 l 0 1111 l 555 1111 l 555 925 l 186 925 l 186 186 l 555 186 l 555 0 l 186 0 l 0 0 z "},"\\":{"ha":1233,"x_min":0,"x_max":1104,"o":"m 0 0 l 435 555 l 436 555 l 0 0 m 0 0 l 436 555 l 435 555 l 869 1111 l 1104 1111 l 671 555 l 553 404 l 553 406 l 237 0 l 0 0 m 237 0 l 553 406 l 553 404 l 237 0 z "},"]":{"ha":768,"x_min":0,"x_max":555,"o":"m 0 0 l 0 186 l 370 186 l 370 925 l 0 925 l 0 1111 l 555 1111 l 555 925 l 555 0 l 370 0 l 0 0 z "},"~":{"ha":1166,"x_min":0,"x_max":1111,"o":"m 0 463 l 147 648 l 439 1019 l 510 1111 l 746 1111 l 673 1019 l 555 868 l 385 648 l 876 648 l 1111 648 l 966 463 l 677 93 l 606 0 l 370 0 l 368 0 l 441 93 l 730 463 l 0 463 z "}," ":{"ha":347,"x_min":0,"x_max":0,"o":""}," ":{"ha":555,"x_min":0,"x_max":0,"o":""}," ":{"ha":1111,"x_min":0,"x_max":0,"o":""}," ":{"ha":555,"x_min":0,"x_max":0,"o":""}," ":{"ha":1111,"x_min":0,"x_max":0,"o":""}," ":{"ha":370,"x_min":0,"x_max":0,"o":""}," ":{"ha":277,"x_min":0,"x_max":0,"o":""}," ":{"ha":185,"x_min":0,"x_max":0,"o":""}," ":{"ha":185,"x_min":0,"x_max":0,"o":""}," ":{"ha":138,"x_min":0,"x_max":0,"o":""}," ":{"ha":222,"x_min":0,"x_max":0,"o":""}," ":{"ha":62,"x_min":0,"x_max":0,"o":""}," ":{"ha":222,"x_min":0,"x_max":0,"o":""}," ":{"ha":277,"x_min":0,"x_max":0,"o":""},"◼":{"ha":694,"x_min":0,"x_max":0,"o":"m 0 0 z "}}}
